<?xml version="1.0" encoding="utf-8"?>
<!-- Generator: Adobe Illustrator 25.4.1, SVG Export Plug-In . SVG Version: 6.00 Build 0)  -->
<svg version="1.1" id="Layer_1" xmlns="http://www.w3.org/2000/svg" xmlns:xlink="http://www.w3.org/1999/xlink" x="0px" y="0px"
	 viewBox="0 0 1920 750" style="enable-background:new 0 0 1920 750;" xml:space="preserve">
<style type="text/css">
	.st0{fill:#F5F5F5;}
	.st1{fill:url(#SVGID_1_);}
	.st2{fill:#3F275B;}
</style>
<path class="st0" d="M905.6,670.3c98.5,24.7,264.8,78.9,504,79.7c199.3,0.7,372.8-35.9,510.4-79.4V0H0v716.7
	C410,599.9,701.7,619.2,905.6,670.3z"/>
<g>
	
		<linearGradient id="SVGID_1_" gradientUnits="userSpaceOnUse" x1="705.4541" y1="355.199" x2="844.2025" y2="493.9475" gradientTransform="matrix(1 0 0 -1 0 752)">
		<stop  offset="0" style="stop-color:#D61669"/>
		<stop  offset="0.6157" style="stop-color:#EF4445"/>
		<stop  offset="1" style="stop-color:#FC5C33"/>
	</linearGradient>
	<path class="st1" d="M732.4,375.2v-85.8h17v96.1L732.4,375.2z M851.4,307.1v-34.8c0-9.4-7.6-17-17-17H715.3c-9.4,0-17,7.6-17,17
		V382v0.6c0,6,3.2,11.6,8.4,14.7l59.5,34.8c5.3,3.1,11.9,3.1,17.2,0l59.5-34.8c5.2-3.1,8.4-8.6,8.4-14.7v-58.4h-34v-34.8h-17v96.1
		l17-10.3v-34h17V382l-59.5,35.9L715.3,382V272.3h119.1v34.8L851.4,307.1L851.4,307.1z M766.4,375.9h17v-34.8h-17V375.9z
		 M783.4,289.4h-17v34.8h17V289.4z"/>
	<g>
		<path class="st2" d="M932.8,268.5v67h-14.5v-27.7h-25.2v27.7h-14.5v-67h14.5v25.8h25.2v-25.8H932.8z"/>
		<path class="st2" d="M999,322v13.5h-41.3v-67H998v13.4h-25.7v13.2h23.2v13.1h-23.2V322H999z"/>
		<path class="st2" d="M1056.5,335.5l-13.2-23l-13.4,23h-16.3l20.8-35.2l-19.5-31.8h16.3l12,20.7l12.1-20.7h15.9l-19.2,32.4
			l20.9,34.6H1056.5z"/>
		<path class="st2" d="M1130.1,322.8h-26.7l-4.6,12.7h-15.4l26.3-67h13.7l27.1,67h-15.7L1130.1,322.8z M1107.9,310.2h17.6l-8.8-24
			L1107.9,310.2z"/>
		<path class="st2" d="M1192.4,312.7h-9.3v22.9h-14.5v-67h27.1c13.4,0,23.4,9.2,23.4,22.2c0,8.8-4.8,15.9-12.2,19.5l14.8,25.3h-16.2
			L1192.4,312.7z M1183.1,299.3h11.6c6.1,0,9.7-3.6,9.7-8.7c0-5-3.6-8.7-9.7-8.7h-11.6V299.3z"/>
	</g>
	<g>
		<g>
			<path class="st2" d="M878.7,371.6c0-11,7.8-18.7,18.4-18.7c9.3,0,15.5,5.6,17.2,12.4h-5c-1.7-4.4-5.7-7.9-12.3-7.9
				c-8,0-13.7,5.6-13.7,14.2c0,8.5,5.6,14.2,13.7,14.2c7,0,11.7-3.8,12.9-9.8h-14v-4.4h19.2c-0.3,11-7.4,18.7-18.2,18.7
				C886.5,390.4,878.7,382.6,878.7,371.6z"/>
			<path class="st2" d="M938.8,353.5h4.6l15,36.2h-5.2l-3.4-8.3h-17.5l-3.4,8.3h-5.1L938.8,353.5z M947.9,376.9l-6.9-17.3l-6.9,17.3
				H947.9z"/>
			<path class="st2" d="M975.8,353.5h4.9l11.7,27l11.7-27h5l6,36.2h-4.9l-4.7-27.9l-11.7,26.5H991l-11.8-26.6l-4.6,28h-4.9
				L975.8,353.5z"/>
			<path class="st2" d="M1030.6,353.5h20.7v4.5h-15.9v11h14.6v4.5h-14.6v11.9h16.5v4.5h-21.2L1030.6,353.5L1030.6,353.5z"/>
			<path class="st2" d="M1066.4,378.5h4.8c0,4.2,3.1,7.3,8.6,7.3c5.4,0,8.2-2.7,8.2-6.1c0-4.2-4.3-5.3-9.1-6.4
				c-5.6-1.3-11.8-3-11.8-10.1c0-5.9,4.4-10.3,12.4-10.3c7.8,0,12.2,4.4,12.2,11h-4.8c0-3.7-2.7-6.4-7.6-6.4c-5.2,0-7.6,2.4-7.6,5.4
				c0,3.9,4.2,5,8.8,6.1c5.8,1.4,12.2,3,12.2,10.5c0,6.2-4.8,11-12.9,11C1071.4,390.4,1066.4,385.5,1066.4,378.5z"/>
		</g>
		<g>
			<path class="st2" d="M1131.8,353.5h4.8v31.7h15.8v4.6h-20.6L1131.8,353.5L1131.8,353.5z"/>
			<path class="st2" d="M1165.3,353.5h4.8v31.7h15.8v4.6h-20.6L1165.3,353.5L1165.3,353.5z"/>
			<path class="st2" d="M1196.4,353.5h13.1c7.1,0,12.1,5,12.1,11.7s-5,11.7-12.1,11.7h-8.3v12.8h-4.8L1196.4,353.5L1196.4,353.5z
				 M1209.3,372.5c4.7,0,7.6-3,7.6-7.2c0-4.3-3-7.3-7.6-7.3h-8.1v14.5H1209.3z"/>
		</g>
	</g>
</g>
<image style="overflow:visible;enable-background:new    ;" width="2048" height="2048" xlink:href="right.png"  transform="matrix(0.2307 0 0 0.2307 1381.0355 138.7844)">
</image>
<image style="overflow:visible;enable-background:new    ;" width="2048" height="2048" xlink:href="LeftOne.png"  transform="matrix(0.2757 0 0 0.2757 11.3258 92.6517)">
</image>
</svg>
