<?xml version="1.0" encoding="utf-8"?>
<!-- Generator: Adobe Illustrator 27.0.0, SVG Export Plug-In . SVG Version: 6.00 Build 0)  -->
<svg version="1.1" id="Layer_1" xmlns="http://www.w3.org/2000/svg" xmlns:xlink="http://www.w3.org/1999/xlink" x="0px" y="0px"
	 viewBox="0 0 159.9 42" style="enable-background:new 0 0 159.9 42;" xml:space="preserve">
<style type="text/css">
	.st0{clip-path:url(#SVGID_00000068661895244498247850000002717246841429444526_);}
	.st1{fill:#FFFFFF;}
</style>
<g>
	<defs>
		<rect id="SVGID_1_" x="0.5" y="-1296" width="158.9" height="42"/>
	</defs>
	<clipPath id="SVGID_00000133498045609125493310000002756035000055138985_">
		<use xlink:href="#SVGID_1_"  style="overflow:visible;"/>
	</clipPath>
	<g style="clip-path:url(#SVGID_00000133498045609125493310000002756035000055138985_);">
		<path class="st1" d="M148.7-1274.5c0.5-2.6,1.8-4.9,3.7-6.8c1.9-1.9,4.2-3.1,6.8-3.6c0.1,0,0.1,0,0.1-0.1c0,0,0.1-0.1,0.1-0.1
			c0-0.1,0-0.1-0.1-0.1c0,0-0.1-0.1-0.1-0.1c-2.6-0.5-4.9-1.8-6.8-3.7c-1.9-1.9-3.1-4.2-3.7-6.8c0-0.1,0-0.1-0.1-0.1
			c0,0-0.1-0.1-0.1-0.1c-0.1,0-0.1,0-0.1,0.1c0,0-0.1,0.1-0.1,0.1c-0.5,2.6-1.8,4.9-3.7,6.8c-1.9,1.9-4.2,3.1-6.8,3.7
			c-0.1,0-0.1,0-0.1,0.1c0,0,0,0.1,0,0.1c0,0.1,0,0.1,0,0.1c0,0,0.1,0.1,0.1,0.1c2.6,0.5,4.9,1.8,6.8,3.6c1.9,1.9,3.1,4.2,3.7,6.8
			c0,0.1,0,0.1,0.1,0.1c0,0,0.1,0.1,0.1,0.1c0.1,0,0.1,0,0.1-0.1C148.7-1274.4,148.7-1274.5,148.7-1274.5z"/>
		<path class="st1" d="M144.7-1270.3c0-2.3-0.7-4.6-2-6.5s-3.1-3.4-5.2-4.3c-2.1-0.9-4.5-1.1-6.8-0.7c-2.3,0.4-4.4,1.5-6,3.2
			c-1.6-1.6-3.7-2.7-6-3.2c-2.3-0.4-4.6-0.2-6.8,0.7c-2.1,0.9-4,2.4-5.2,4.3c-1.3,1.9-2,4.2-2,6.5v15.8c0,0.1,0,0.2,0.1,0.3
			s0.2,0.1,0.3,0.1h5.8c0.1,0,0.2,0,0.3-0.1c0.1-0.1,0.1-0.2,0.1-0.3v-16.2c0-1.3,0.6-2.5,1.5-3.4c0.9-0.9,2.1-1.4,3.4-1.4
			c2.6,0,5.1,2.1,5.1,4.7v16.2c0,0.1,0,0.2,0.1,0.3c0.1,0.1,0.2,0.1,0.3,0.1h5.8c0.1,0,0.2,0,0.3-0.1s0.1-0.2,0.1-0.3v-16.2
			c0-2.6,2.5-4.7,5.1-4.7c1.3,0,2.5,0.5,3.4,1.4s1.4,2.1,1.5,3.4v16.2c0,0.1,0,0.2,0.1,0.3c0.1,0.1,0.2,0.1,0.3,0.1h5.8
			c0.1,0,0.2,0,0.3-0.1c0.1-0.1,0.1-0.2,0.1-0.3L144.7-1270.3L144.7-1270.3z"/>
		<path class="st1" d="M89.3-1282c-2.2,0-4.3,0.5-6.2,1.4c-1.9,0.9-3.6,2.3-4.9,4c-1.3,1.7-2.2,3.7-2.6,5.8s-0.3,4.3,0.2,6.4
			c0.6,2.1,1.6,4,3,5.6c1.4,1.6,3.2,2.9,5.2,3.7s4.1,1.2,6.3,1c2.1-0.1,4.2-0.8,6.1-1.9v1.4c0,0.1,0,0.2,0.1,0.3
			c0.1,0.1,0.2,0.1,0.3,0.1h6.1c0.1,0,0.2,0,0.3-0.1c0.1-0.1,0.1-0.2,0.1-0.3v-13.6c0-3.7-1.5-7.3-4.1-9.9
			C96.6-1280.5,93-1282,89.3-1282z M89.3-1260.6c-1.5,0-2.9-0.4-4.1-1.2c-1.2-0.8-2.2-2-2.7-3.3s-0.7-2.8-0.4-4.3
			c0.3-1.4,1-2.7,2-3.8c1-1,2.3-1.7,3.8-2c1.4-0.3,2.9-0.1,4.3,0.4c1.3,0.6,2.5,1.5,3.3,2.7c0.8,1.2,1.2,2.6,1.2,4.1
			c0,2-0.8,3.8-2.2,5.2C93.2-1261.4,91.3-1260.6,89.3-1260.6z"/>
		<path class="st1" d="M74.5-1263.5l-4.4-1.7c-0.3-0.1-0.5-0.1-0.8,0c-0.3,0.1-0.5,0.3-0.6,0.5c-0.6,1.2-1.6,2.2-2.7,2.9
			c-1.2,0.7-2.5,1.1-3.9,1.1c-0.9,0-1.8-0.1-2.7-0.5c-0.4-0.1-0.7-0.3-1-0.5c0,0-0.1,0-0.1-0.1c0,0,0-0.1,0-0.1s0-0.1,0-0.1
			c0,0,0-0.1,0.1-0.1l11.1-6.4l3.2-1.8c0.4-0.2,0.8-0.6,1.1-1c0.3-0.4,0.5-0.8,0.6-1.3c0.1-0.5,0.2-1,0.1-1.5
			c-0.1-0.5-0.2-1-0.5-1.4c-0.5-0.8-1.1-1.6-1.8-2.2c-2.1-2.2-4.8-3.6-7.8-4.1c-3-0.5-6,0-8.7,1.3c-2.7,1.4-4.9,3.5-6.2,6.2
			c-1.3,2.7-1.8,5.7-1.3,8.7c0.5,3,2,5.7,4.2,7.7c2.2,2.1,5,3.4,8,3.7c3,0.4,6-0.2,8.6-1.7c2.6-1.5,4.7-3.8,5.9-6.5
			c0.1-0.1,0.1-0.2,0.1-0.4c0-0.1,0-0.2-0.1-0.4c0-0.1-0.1-0.2-0.2-0.3C74.8-1263.4,74.7-1263.5,74.5-1263.5z M54.9-1268
			c0-1.3,0.3-2.6,1-3.7c0.6-1.1,1.6-2,2.7-2.7c1.1-0.6,2.4-1,3.7-1c1.3,0,2.6,0.3,3.7,1c0,0,0.1,0,0.1,0.1c0,0,0,0.1,0,0.1
			c0,0,0,0.1,0,0.1c0,0,0,0.1-0.1,0.1l-10.7,6.2c0,0-0.1,0-0.1,0s-0.1,0-0.1,0c0,0-0.1,0-0.1-0.1C54.9-1267.9,54.9-1267.9,54.9-1268
			z"/>
		<path class="st1" d="M50.8-1280.2c-2.1-1.2-4.5-1.8-6.9-1.8c-3.7,0-7.3,1.5-9.9,4.1c-2.6,2.6-4.1,6.2-4.1,9.9v13.6
			c0,0.1,0,0.2,0.1,0.3c0.1,0.1,0.2,0.1,0.3,0.1h6.1c0.1,0,0.2,0,0.3-0.1s0.1-0.2,0.1-0.3v-13.6c0-1.9,0.7-3.6,2.1-5
			c1.3-1.3,3.1-2.1,5-2.1c1,0,2,0.2,2.9,0.6c0.1,0.1,0.3,0.1,0.4,0c0.1,0,0.3-0.1,0.4-0.2l3.3-4.7c0.1-0.1,0.1-0.2,0.1-0.2
			c0-0.1,0-0.2,0-0.3c0-0.1-0.1-0.2-0.1-0.3C51-1280.1,50.9-1280.1,50.8-1280.2z"/>
		<path class="st1" d="M28.1-1296h-6.1c-0.1,0-0.1,0-0.2,0s-0.1,0.1-0.1,0.1c0,0-0.1,0.1-0.1,0.1c0,0.1,0,0.1,0,0.2v15.4
			c-2.7-1.5-5.8-2.2-8.8-1.8c-3.1,0.4-5.9,1.8-8.1,4c-2.2,2.2-3.6,5-4,8.1c-0.4,3.1,0.2,6.2,1.8,8.8c1.5,2.7,3.9,4.8,6.8,5.9
			c2.9,1.2,6,1.4,9,0.6s5.6-2.6,7.5-5c1.9-2.4,2.9-5.4,2.9-8.5v-27.6c0-0.1,0-0.1,0-0.2s-0.1-0.1-0.1-0.1c0,0-0.1-0.1-0.1-0.1
			C28.2-1296,28.1-1296,28.1-1296z M14.5-1260.7c-1.5,0-2.9-0.4-4.1-1.2c-1.2-0.8-2.2-2-2.7-3.3c-0.6-1.3-0.7-2.8-0.4-4.2
			c0.3-1.4,1-2.7,2-3.8c1-1,2.3-1.7,3.8-2c1.4-0.3,2.9-0.1,4.3,0.4c1.3,0.6,2.5,1.5,3.3,2.7c0.8,1.2,1.2,2.6,1.2,4.1
			c0,1.9-0.8,3.8-2.2,5.2C18.3-1261.4,16.4-1260.7,14.5-1260.7z"/>
	</g>
</g>
<g>
	<path class="st1" d="M8.9,27.9V8.3h3.9v22L8.9,27.9z M36.2,12.4v-8c0-2.2-1.7-3.9-3.9-3.9H5c-2.2,0-3.9,1.7-3.9,3.9v25.1v0.1
		C1.1,31,1.9,32.3,3,33l13.6,8c1.2,0.7,2.7,0.7,3.9,0l13.6-8c1.2-0.7,1.9-2,1.9-3.4V16.3h-7.8v-8h-3.9v22l3.9-2.4v-7.8h3.9v9.3
		l-13.6,8.2L5,29.5V4.4h27.3v8H36.2z M16.7,28.1h3.9v-8h-3.9V28.1z M20.6,8.3h-3.9v8h3.9V8.3z"/>
	<g>
		<path class="st1" d="M61.9,0.6v22.5H57v-9.3h-8.5v9.3h-4.9V0.6h4.9v8.7H57V0.6H61.9z"/>
		<path class="st1" d="M84.1,18.6v4.5H70.3V0.6h13.5v4.5h-8.6v4.4h7.8V14h-7.8v4.6H84.1z"/>
		<path class="st1" d="M103.4,23.1l-4.4-7.7l-4.5,7.7H89l7-11.8L89.4,0.6h5.5l4,6.9l4-6.9h5.3l-6.5,10.9l7,11.6H103.4z"/>
		<path class="st1" d="M128.1,18.8h-8.9l-1.5,4.3h-5.2l8.8-22.5h4.6l9.1,22.5h-5.3L128.1,18.8z M120.6,14.6h5.9l-3-8L120.6,14.6z"/>
		<path class="st1" d="M149,15.4h-3.1v7.7H141V0.6h9.1c4.5,0,7.9,3.1,7.9,7.4c0,2.9-1.6,5.3-4.1,6.5l5,8.5h-5.4L149,15.4z
			 M145.8,10.9h3.9c2,0,3.3-1.2,3.3-2.9c0-1.7-1.2-2.9-3.3-2.9h-3.9V10.9z"/>
	</g>
	<g>
		<g>
			<path class="st1" d="M43.7,35.2c0-3.7,2.6-6.3,6.2-6.3c3.1,0,5.2,1.9,5.8,4.2H54c-0.6-1.5-1.9-2.6-4.1-2.6
				c-2.7,0-4.6,1.9-4.6,4.8c0,2.9,1.9,4.8,4.6,4.8c2.4,0,3.9-1.3,4.3-3.3h-4.7v-1.5H56c-0.1,3.7-2.5,6.3-6.1,6.3
				C46.3,41.5,43.7,38.9,43.7,35.2z"/>
			<path class="st1" d="M63.9,29.1h1.5l5,12.2h-1.7l-1.1-2.8h-5.9l-1.1,2.8h-1.7L63.9,29.1z M66.9,37l-2.3-5.8L62.3,37H66.9z"/>
			<path class="st1" d="M76.3,29.1h1.6l3.9,9.1l3.9-9.1h1.7l2,12.2h-1.6l-1.6-9.4l-3.9,8.9h-0.9l-4-8.9l-1.5,9.4h-1.6L76.3,29.1z"/>
			<path class="st1" d="M94.7,29.1h6.9v1.5h-5.3v3.7h4.9v1.5h-4.9v4h5.5v1.5h-7.1V29.1z"/>
			<path class="st1" d="M106.7,37.5h1.6c0,1.4,1,2.4,2.9,2.4c1.8,0,2.7-0.9,2.7-2c0-1.4-1.4-1.8-3.1-2.2c-1.9-0.5-4-1-4-3.4
				c0-2,1.5-3.4,4.2-3.4c2.6,0,4.1,1.5,4.1,3.7h-1.6c0-1.3-0.9-2.2-2.5-2.2c-1.7,0-2.5,0.8-2.5,1.8c0,1.3,1.4,1.7,2.9,2
				c1.9,0.5,4.1,1,4.1,3.5c0,2.1-1.6,3.7-4.3,3.7C108.4,41.5,106.7,39.9,106.7,37.5z"/>
		</g>
		<g>
			<path class="st1" d="M128.6,29.1h1.6v10.6h5.3v1.5h-6.9V29.1z"/>
			<path class="st1" d="M139.9,29.1h1.6v10.6h5.3v1.5h-6.9V29.1z"/>
			<path class="st1" d="M150.3,29.1h4.4c2.4,0,4.1,1.7,4.1,3.9c0,2.2-1.7,3.9-4.1,3.9h-2.8v4.3h-1.6V29.1z M154.6,35.5
				c1.6,0,2.6-1,2.6-2.4c0-1.4-1-2.4-2.6-2.4h-2.7v4.9H154.6z"/>
		</g>
	</g>
</g>
</svg>
