<svg width="52" height="52" viewBox="0 0 52 52" fill="none" xmlns="http://www.w3.org/2000/svg">
<path d="M26 2.88867C21.4291 2.88867 16.9608 4.24411 13.1602 6.7836C9.35959 9.32308 6.39738 12.9325 4.64815 17.1555C2.89893 21.3785 2.44125 26.0254 3.333 30.5085C4.22475 34.9916 6.42587 39.1097 9.65801 42.3418C12.8902 45.574 17.0082 47.7751 21.4913 48.6668C25.9744 49.5586 30.6213 49.1009 34.8443 47.3517C39.0673 45.6024 42.6767 42.6402 45.2162 38.8396C47.7557 35.039 49.1111 30.5707 49.1111 25.9998C49.1111 19.8703 46.6762 13.9919 42.3421 9.65776C38.0079 5.32359 32.1295 2.88867 26 2.88867ZM41.0945 18.2431L22.1145 37.2087L10.9056 25.9998C10.5225 25.6167 10.3073 25.0971 10.3073 24.5553C10.3073 24.0136 10.5225 23.494 10.9056 23.1109C11.2887 22.7278 11.8083 22.5126 12.35 22.5126C12.8918 22.5126 13.4114 22.7278 13.7945 23.1109L22.1434 31.4598L38.2345 15.3831C38.4242 15.1934 38.6494 15.043 38.8972 14.9403C39.145 14.8376 39.4107 14.7848 39.6789 14.7848C39.9472 14.7848 40.2128 14.8376 40.4606 14.9403C40.7085 15.043 40.9337 15.1934 41.1234 15.3831C41.313 15.5728 41.4635 15.798 41.5662 16.0458C41.6688 16.2937 41.7217 16.5593 41.7217 16.8276C41.7217 17.0958 41.6688 17.3614 41.5662 17.6093C41.4635 17.8571 41.313 18.0823 41.1234 18.272L41.0945 18.2431Z" fill="#15CF74"/>
</svg>
